PathFileType	4	(X/Y/Z)	../Python\walking\Walking20\task.trc
DataRate	CameraRate	NumFrames	NumMarkers	Units	OrigDataRate	OrigDataStartFrame	OrigNumFrames
200.000000	200.000000	4	30	mm	200.000000	60	485
Frame#	Time	CLAV			STRN			RASI			LASI			PE01			RTH1			RTH2			RTH3			RTB1			RHEE			RD5M			RTOE			LTH2			LTH3			LTB1			LTB2			LTB3			LHEE			LTOE			LD5M			RTB3			RBAK			RTB2			C7			RPSI			LPSI			PE03			PE02			LTH1			T10			
		X1	Y1	Z1	X2	Y2	Z2	X3	Y3	Z3	X4	Y4	Z4	X5	Y5	Z5	X6	Y6	Z6	X7	Y7	Z7	X8	Y8	Z8	X9	Y9	Z9	X10	Y10	Z10	X11	Y11	Z11	X12	Y12	Z12	X13	Y13	Z13	X14	Y14	Z14	X15	Y15	Z15	X16	Y16	Z16	X17	Y17	Z17	X18	Y18	Z18	X19	Y19	Z19	X20	Y20	Z20	X21	Y21	Z21	X22	Y22	Z22	X23	Y23	Z23	X24	Y24	Z24	X25	Y25	Z25	X26	Y26	Z26	X27	Y27	Z27	X28	Y28	Z28	X29	Y29	Z29	X30	Y30	Z30	

61	0.3	-1099.308471679688	1241.890747070313	185.6465301513672	-1032.279174804688	1057.856689453125	178.3579101562501	-1060.882934570313	863.8298950195317	302.3397827148439	-1069.501098632813	840.9480590820317	77.37575531005862	-1263.008422851563	930.727905273438	203.4257659912111	-1053.633422851563	576.4246826171877	338.4368286132814	-1014.019470214844	510.5627441406252	316.3747863769532	-1004.265869140625	570.4805297851565	327.6452941894532	-969.479858398438	290.9585571289064	287.040496826172	-1057.880493164063	26.34175682067873	204.4668884277345	-907.1350097656255	13.37375068664551	269.2721557617189	-870.7790527343755	29.84620094299318	215.4622802734376	-1188.66455078125	523.6911621093752	48.27355575561526	-1114.172119140625	552.908630371094	37.48550033569337	-1318.32666015625	336.6021423339845	60.93367767333987	-1379.519653320313	289.5655517578126	79.98991394042972	-1332.334594726563	277.6719665527345	73.04206085205081	-1521.140380859375	208.0107879638673	155.3065338134766	-1445.225830078125	47.21822357177736	131.4570617675782	-1476.33203125	69.06903076171878	93.43000793457034	-978.086791992188	213.3737182617189	276.075897216797	-1265.9921875	1224.20751953125	294.3855285644532	-1009.998657226563	246.8527221679689	295.7803955078126	-1228.883666992188	1327.780883789063	195.8547821044923	-1261.347778320313	898.4528808593755	253.5909118652345	-1266.157348632813	891.8639526367192	164.1366577148438	-1276.814575195313	867.4042358398442	184.0507202148438	-1274.442749023438	872.5755004882817	234.4068145751954	-1160.619140625	577.2014770507815	35.48773574829103	-1247.259155273438	1030.188720703125	191.8765716552735	
62	0.305	-1092.438842773438	1243.48974609375	185.3549346923829	-1025.43408203125	1059.4130859375	177.9566650390626	-1054.054809570313	865.1575317382817	302.7003479003907	-1063.009643554688	842.350952148438	77.76642608642581	-1256.249267578125	932.3359985351567	204.0768585205079	-1050.667358398438	576.7717285156252	338.7066040039064	-1011.939514160157	510.3270263671877	316.9447021484376	-1001.377990722657	570.033142089844	328.4725341796876	-968.2815551757817	290.6914367675782	287.4551696777345	-1057.938598632813	26.34754371643068	204.4792022705079	-907.1432495117192	13.34695339202882	269.259002685547	-870.8229370117192	29.88431549072267	215.4924163818361	-1177.282958984375	523.9891357421877	48.18972015380862	-1103.672119140625	554.466735839844	36.79227828979494	-1303.898193359375	338.1223449707032	60.46376419067386	-1365.418579101563	291.5529174804689	79.66612243652347	-1318.328491210938	279.3324279785157	72.71455383300784	-1507.863891601563	210.5350189208986	155.7715759277344	-1430.737915039063	50.09627914428714	128.6505737304688	-1462.720336914063	72.91497802734378	91.58020782470706	-977.3481445312505	213.1633758544923	276.4171752929689	-1258.36572265625	1225.934326171875	295.1290588378907	-1009.129333496094	246.8541259765626	296.0167236328126	-1221.836791992188	1329.357421875	196.1778717041017	-1254.493896484375	900.2482299804692	254.3934173583986	-1259.473266601563	893.3547973632817	164.9376068115235	-1270.111572265625	868.9992675781255	184.7836151123047	-1267.69775390625	874.2194824218755	235.1395874023439	-1150.322631835938	578.0310668945315	35.26675033569337	-1240.305786132813	1031.830078125	192.6685943603517	
63	0.31	-1085.61181640625	1245.084716796875	185.0342102050782	-1018.649047851563	1060.96533203125	177.5251922607422	-1047.277465820313	866.441528320313	303.0367126464845	-1056.601318359375	843.7864379882817	78.09676361083987	-1249.513549804688	933.960327148438	204.7821502685548	-1047.721435546875	577.1506958007815	338.9244995117189	-1009.848388671875	510.1730651855471	317.4232482910157	-998.515502929688	569.663513183594	329.1853637695314	-967.1423339843755	290.4534606933595	287.796844482422	-1057.99560546875	26.36453247070314	204.494598388672	-907.1503906250005	13.30334281921387	269.248016357422	-870.8712768554692	29.9050693511963	215.5273742675782	-1165.934448242188	524.4633789062502	48.18407058715823	-1093.270629882813	556.2105102539065	36.09614562988283	-1289.371337890625	339.7091674804689	60.08954238891604	-1351.146240234375	293.4883728027345	79.38652038574222	-1304.127319335938	280.9936523437501	72.40445709228518	-1494.34228515625	212.5481719970704	156.1657257080079	-1415.372192382813	52.88219070434573	125.8505401611329	-1448.315551757813	76.47454833984378	89.68232727050784	-976.6344604492192	212.981658935547	276.703094482422	-1250.7685546875	1227.68701171875	295.8659057617189	-1008.273620605469	246.8781280517579	296.2108764648439	-1214.818359375	1330.944580078125	196.4820251464845	-1247.690673828125	902.0364379882817	255.222381591797	-1252.854858398438	894.877075195313	165.7834472656251	-1263.474975585938	870.630737304688	185.5528564453126	-1261.001098632813	875.8794555664067	235.9099426269532	-1140.072021484375	579.0100708007815	35.0793800354004	-1233.400634765625	1033.481567382813	193.4843750000001	
64	0.315	-1078.8271484375	1246.670166015625	184.6864624023438	-1011.922302246094	1062.508911132813	177.0667724609376	-1040.549072265625	867.6801757812505	303.3521423339845	-1050.270141601563	845.249389648438	78.37109375000003	-1242.798950195313	935.5951538085942	205.5365295410157	-1044.750854492188	577.5686035156252	339.0946655273439	-1007.695495605469	510.1087646484377	317.8104858398439	-995.631225585938	569.3842773437502	329.7751770019532	-966.0482788085942	290.2444458007814	288.0649414062501	-1058.049438476563	26.3932571411133	204.5114746093751	-907.1553344726567	13.24840068817139	269.2415466308595	-870.9190063476567	29.91031074523927	215.5668945312501	-1154.613037109375	525.1084594726565	48.25024795532229	-1082.944091796875	558.1328125000002	35.4091262817383	-1274.775390625	341.3533020019532	59.81666946411136	-1336.727172851563	295.3553161621095	79.15460205078128	-1289.755981445313	282.6448364257814	72.10593414306643	-1480.583618164063	214.0460968017579	156.4782714843751	-1399.234008789063	55.52918243408206	123.1162643432618	-1433.177001953125	79.70355987548831	87.7701110839844	-975.9375000000005	212.8271026611329	276.934051513672	-1243.203002929688	1229.45849609375	296.5940551757814	-1007.422241210938	246.9236450195314	296.3645935058595	-1207.828979492188	1332.5361328125	196.7670135498048	-1240.935302734375	903.8117675781255	256.0733947753907	-1246.297241210938	896.4251098632817	166.6680755615235	-1256.899658203125	872.292114257813	186.3526153564454	-1254.349975585938	877.5491333007817	236.7119903564454	-1129.857543945313	580.1328125000002	34.93062973022462	-1226.541381835938	1035.13671875	194.3210754394532	
